<svg width="1em" height="1em" viewBox="0 0 30 30" fill="none" xmlns="http://www.w3.org/2000/svg" class="me-1" aria-label="Shell"><path d="M23.514 6.4173C22.8814 6.44339 22.4224 6.85759 22.1293 7.34794C22.5085 5.98321 21.7491 4.5529 20.3777 4.11901L17.8907 3.33214C17.1916 3.11096 16.47 3.19058 15.9026 3.592C15.432 3.92496 15.1345 4.43187 15.0322 5.01393C14.9134 4.40993 14.5857 3.89258 14.0855 3.5668C13.5173 3.19669 12.8108 3.1285 12.1258 3.34907L9.80314 4.0969L9.79607 4.09917L9.78904 4.10158L9.72025 4.12517L9.71322 4.12758L9.70623 4.13013C8.36791 4.61742 7.60494 6.08299 7.98823 7.46445L7.98824 7.46446L8.08244 7.80398L8.07115 7.7783L8.07123 7.77827L8.06652 7.76796C7.80723 7.20036 7.32168 6.63404 6.58247 6.61517C5.85422 6.59657 5.33014 7.12369 5.02078 7.67248L3.85062 9.74829L3.84634 9.75587L3.84224 9.76355L3.79861 9.8451L3.79456 9.85267L3.79067 9.86033C3.47894 10.4748 3.38483 11.1933 3.45559 11.8603C3.50664 12.3416 3.64739 12.832 3.88833 13.2677C3.578 13.1877 3.24017 13.1971 2.91078 13.385C2.25342 13.7599 2.17358 14.5451 2.22398 15.1098L2.29829 15.9423L2.29896 15.9497L2.29977 15.9572L2.3098 16.0497L2.31059 16.057L2.31151 16.0642C2.39492 16.7199 2.67683 17.3918 3.04492 17.9634C3.41244 18.5342 3.9073 19.0694 4.47506 19.4087L7.25038 21.0678C7.46407 21.3387 7.64944 21.5958 7.81279 21.8396L7.93646 22.0281C7.95451 22.0562 7.97228 22.0841 7.9898 22.1118C7.99038 22.1128 7.99096 22.1137 7.99154 22.1146L8.10013 22.2901C8.1007 22.2911 8.10127 22.292 8.10183 22.2929C8.11824 22.32 8.13441 22.3469 8.15036 22.3737C8.15088 22.3745 8.1514 22.3754 8.15192 22.3763L8.25084 22.5453C8.25134 22.5462 8.25184 22.547 8.25233 22.5479C8.2674 22.5741 8.28226 22.6002 8.29692 22.6261C8.29734 22.6268 8.29775 22.6276 8.29817 22.6283L8.38909 22.7916L8.47484 22.9501L8.59728 23.1833L8.89652 23.7702L8.89648 23.7702L8.90039 23.7776L9.04026 24.0449L9.04373 24.0515L9.04733 24.0581L9.11671 24.1847L9.12022 24.1911L9.12385 24.1975L9.19369 24.3195L9.19365 24.3195L9.198 24.327C9.21125 24.3495 9.22465 24.3721 9.23822 24.3946L9.23816 24.3946L9.24382 24.4037L9.31549 24.5189L9.32188 24.5292L9.32858 24.5393L9.40223 24.65L9.40214 24.65L9.40977 24.6611C9.75537 25.1618 10.192 25.5744 10.8622 25.8659C11.5007 26.1437 12.3115 26.2938 13.379 26.3629L13.379 26.3629L13.3854 26.3632L13.6749 26.3796L13.6749 26.3797L13.6868 26.3802L13.993 26.3928L13.993 26.3929L14.0037 26.3932L14.3273 26.4022L14.3273 26.4022L14.3321 26.4023C14.3891 26.4035 14.4469 26.4046 14.5053 26.4055L14.5097 26.4056L14.8605 26.4091L14.8605 26.4092L14.8666 26.4092L15.0491 26.4096H15.051C16.7496 26.4096 17.9527 26.2292 18.844 25.8538C19.7778 25.4604 20.3119 24.8777 20.7107 24.2218L20.7108 24.2218L20.7162 24.2126L20.7902 24.0871L20.7903 24.0871L20.7953 24.0784C20.809 24.0545 20.8225 24.0305 20.8358 24.0066L20.8359 24.0066L20.8397 23.9996L20.9105 23.8694L20.9106 23.8695L20.9169 23.8575L20.9864 23.7243L20.9865 23.7244L20.991 23.7155L21.0598 23.5795L21.0598 23.5795L21.0635 23.5721L21.3429 23.0057L21.452 22.7908L21.5264 22.6493L21.6044 22.5065L21.6877 22.3601C21.9668 21.8812 22.3247 21.3803 22.8667 20.8647L25.5623 19.1801C26.1356 18.8217 26.6352 18.2575 27.0012 17.6617C27.3673 17.0659 27.6452 16.3648 27.7054 15.6901L27.7756 14.9041C27.8051 14.5732 27.7894 14.2415 27.6938 13.9425C27.5966 13.6382 27.3977 13.3197 27.0407 13.1391C26.7893 13.012 26.5292 12.9885 26.2917 13.0214C26.5231 12.5809 26.6553 12.0889 26.6984 11.6077C26.76 10.9199 26.6463 10.1783 26.2963 9.55727L25.1261 7.48146C24.8033 6.9089 24.2569 6.38665 23.514 6.4173Z" fill="#FFF360" stroke="white" stroke-width="1.57802"></path><path d="M5.41581 14.6967L4.54779 13.9683L4.54788 13.9682L4.53894 13.9611C4.122 13.628 3.56222 13.3768 3.06713 13.6592C2.58359 13.9349 2.48989 14.5389 2.53834 15.0817L2.61265 15.9142L2.61256 15.9142L2.61353 15.9232L2.62356 16.0157L2.62348 16.0157L2.62459 16.0244C2.70069 16.6226 2.96104 17.2502 3.31027 17.7926C3.65916 18.3344 4.12161 18.8298 4.63698 19.1378L7.46188 20.8265C7.69653 21.1213 7.89872 21.4008 8.07591 21.6653C8.0763 21.6659 8.07668 21.6665 8.07706 21.667L8.20001 21.8544C8.20039 21.855 8.20077 21.8556 8.20116 21.8562C8.22022 21.8859 8.23899 21.9153 8.25747 21.9446C8.25781 21.9452 8.25816 21.9457 8.2585 21.9463L8.36994 22.1264C8.37028 22.127 8.37062 22.1275 8.37096 22.1281C8.38825 22.1566 8.40529 22.1849 8.42207 22.2131C8.4224 22.2136 8.42272 22.2142 8.42305 22.2147L8.52443 22.388C8.52473 22.3885 8.52502 22.389 8.52532 22.3895C8.54113 22.417 8.55672 22.4444 8.5721 22.4715C8.57236 22.472 8.57262 22.4724 8.57288 22.4729L8.66574 22.6397L8.7534 22.8017L8.87756 23.0382L9.17768 23.6268L9.17766 23.6268L9.18001 23.6313L9.31988 23.8985L9.3198 23.8986L9.32412 23.9064L9.3935 24.0331L9.39343 24.0331L9.39779 24.0407L9.46762 24.1628L9.46759 24.1628L9.47021 24.1672C9.48284 24.1888 9.49558 24.2102 9.50845 24.2315L9.50841 24.2316L9.51181 24.237L9.58348 24.3522L9.58731 24.3584L9.59133 24.3644L9.66499 24.4751L9.66493 24.4752L9.66951 24.4818C9.98666 24.9413 10.3794 25.3118 10.9881 25.5765C11.5777 25.833 12.3464 25.9798 13.3993 26.0479L13.4032 26.0481L13.6927 26.0645L13.6927 26.0645L13.6998 26.0648L14.006 26.0775L14.006 26.0775L14.0124 26.0777L14.336 26.0867L14.339 26.0868C14.3953 26.088 14.4524 26.089 14.5103 26.09L14.5129 26.09L14.8637 26.0936V26.0936L14.8674 26.0936L15.0499 26.094H15.051C16.7333 26.094 17.8872 25.9143 18.7214 25.5629C19.5812 25.2008 20.0687 24.6703 20.4411 24.0578L20.4411 24.0578L20.4444 24.0523L20.5184 23.9268L20.5184 23.9268L20.5214 23.9216C20.5345 23.8988 20.5474 23.8759 20.5602 23.8529L20.5625 23.8487L20.6333 23.7186L20.6334 23.7186L20.6371 23.7114L20.7066 23.5783L20.7067 23.5783L20.7094 23.573L20.7782 23.4369L20.7783 23.437L20.7804 23.4325L21.0607 22.8644L21.1716 22.6459L21.2483 22.5002L21.3287 22.3528L21.4131 22.2045C21.4134 22.2039 21.4138 22.2033 21.4141 22.2027C21.7096 21.6956 22.0916 21.1618 22.6726 20.6138L25.395 18.9124C25.9161 18.5868 26.3841 18.0633 26.7323 17.4965C27.0806 16.9297 27.3363 16.2752 27.3911 15.662L27.4612 14.8761C27.4885 14.5708 27.4718 14.2845 27.3932 14.0386C27.3136 13.7895 27.159 13.5526 26.8983 13.4208C26.6376 13.2889 26.3553 13.3047 26.1073 13.388C25.8625 13.4703 25.6216 13.6263 25.3913 13.8291L25.3913 13.8291L25.0588 14.122L25.6946 13.3542C26.1015 12.8629 26.3269 12.2172 26.3841 11.5796C26.4412 10.942 26.334 10.2669 26.0213 9.71226L24.8512 7.63644C24.5546 7.11035 24.0979 6.70908 23.527 6.73263C22.9572 6.75614 22.5339 7.19228 22.2791 7.73863L20.0725 12.4707L21.7869 7.38795L21.3383 7.23665L21.7869 7.38794C22.2048 6.14895 21.5322 4.81531 20.2825 4.41991L17.7955 3.63305C17.1771 3.4374 16.5608 3.51295 16.0849 3.84964C15.6091 4.18628 15.3321 4.74265 15.3094 5.39225L15.114 10.9874L14.7616 5.38029L14.7617 5.38029L14.7611 5.37222L14.7557 5.30479L14.7557 5.30478L14.7549 5.29663C14.6938 4.66959 14.3923 4.14329 13.9132 3.83125C13.4343 3.51932 12.8286 3.45433 12.2225 3.64949L9.89987 4.39731L9.89984 4.39723L9.89141 4.40012L9.82262 4.42371L9.82259 4.42363L9.8142 4.42669C8.62986 4.85791 7.95332 6.15812 8.29235 7.38007L8.29235 7.38008L9.68706 12.4067L7.81193 7.97299L7.81197 7.97297L7.8093 7.96689L7.78223 7.9053L7.78227 7.90528L7.77945 7.8991C7.54126 7.37768 7.13619 6.94501 6.57441 6.93067C6.01921 6.91649 5.58199 7.3196 5.29571 7.82746L4.12555 9.90327L4.12545 9.90321L4.12052 9.91243L4.07689 9.99398L4.07679 9.99393L4.07213 10.0031C3.79274 10.5539 3.70389 11.2092 3.76943 11.827C3.83494 12.4446 4.05916 13.0661 4.4543 13.541L4.81454 13.2413L4.4543 13.541L5.41581 14.6967Z" fill="#FFF360" stroke="#FFC20A" stroke-width="0.946813"></path></svg>