<svg xmlns="http://www.w3.org/2000/svg" width="280" height="110" viewBox="0 0 280 110" fill="none">
<rect width="280" height="110" fill="url(#paint0_linear_564_4675)"/>
<mask id="mask0_564_4675" style="mask-type:alpha" maskUnits="userSpaceOnUse" x="0" y="0" width="280" height="110">
<rect width="280" height="110" fill="url(#paint1_linear_564_4675)"/>
</mask>
<g mask="url(#mask0_564_4675)">
<rect x="-211" y="-93.3389" width="297.92" height="297.92" transform="rotate(-45 -211 -93.3389)" fill="url(#paint2_linear_564_4675)" fill-opacity="0.2"/>
<path d="M82 66.5L19.5 129V150.5L103.5 66.5H82Z" fill="url(#paint3_linear_564_4675)" fill-opacity="0.2"/>
<rect x="523.322" y="246.661" width="297.92" height="297.92" transform="rotate(135 523.322 246.661)" fill="url(#paint4_linear_564_4675)" fill-opacity="0.2"/>
<path d="M191.5 47L299.5 -61H347L239 47H191.5Z" fill="url(#paint5_linear_564_4675)" fill-opacity="0.3"/>
</g>
<defs>
<linearGradient id="paint0_linear_564_4675" x1="140" y1="0" x2="140" y2="163.701" gradientUnits="userSpaceOnUse">
<stop stop-color="#C00100"/>
<stop offset="1" stop-color="#E70F00"/>
</linearGradient>
<linearGradient id="paint1_linear_564_4675" x1="140" y1="38.2609" x2="140" y2="103.424" gradientUnits="userSpaceOnUse">
<stop stop-color="#D81A0D"/>
<stop offset="1" stop-color="#E70F00"/>
</linearGradient>
<linearGradient id="paint2_linear_564_4675" x1="-251.545" y1="163.581" x2="10.7919" y2="166.409" gradientUnits="userSpaceOnUse">
<stop offset="0.152841" stop-color="white" stop-opacity="0"/>
<stop offset="1" stop-color="white"/>
</linearGradient>
<linearGradient id="paint3_linear_564_4675" x1="88.5" y1="69" x2="16" y2="142.5" gradientUnits="userSpaceOnUse">
<stop stop-color="white" stop-opacity="0"/>
<stop offset="1" stop-color="white"/>
</linearGradient>
<linearGradient id="paint4_linear_564_4675" x1="823.603" y1="487.066" x2="524.143" y2="487.419" gradientUnits="userSpaceOnUse">
<stop offset="0.0192697" stop-color="white" stop-opacity="0"/>
<stop offset="1" stop-color="white"/>
</linearGradient>
<linearGradient id="paint5_linear_564_4675" x1="294" y1="-38" x2="139" y2="130.5" gradientUnits="userSpaceOnUse">
<stop stop-color="white" stop-opacity="0"/>
<stop offset="1" stop-color="white"/>
</linearGradient>
</defs>
</svg>