<svg width="1em" height="1em" viewBox="0 0 80 80" fill="none" xmlns="http://www.w3.org/2000/svg"><path d="M28 31.4287C27.9995 25.9848 32.4125 21.5713 37.8564 21.5713H42.1418C47.6027 21.5713 51.9992 26.0312 51.9989 31.4586C51.9987 35.1829 49.8974 38.6189 46.5502 40.2926L43.2814 41.9271C42.8459 42.1449 42.5708 42.5901 42.5708 43.0771V43.4284C42.5708 45.0853 41.2276 46.4284 39.5708 46.4284C37.9139 46.4284 36.5708 45.0853 36.5708 43.4284V43.0771C36.5708 40.3175 38.1298 37.7948 40.598 36.5606L43.8668 34.9261C45.1654 34.2768 45.9988 32.9281 45.9989 31.4582C45.999 29.3111 44.2553 27.5713 42.1418 27.5713H37.8564C35.7264 27.5713 33.9998 29.2981 34 31.4281C34.0002 33.085 32.6572 34.4282 31.0003 34.4284C29.3434 34.4286 28.0002 33.0856 28 31.4287Z" fill="currentColor"></path><path d="M43.5 54C43.5 56.2091 41.7091 58 39.5 58C37.2909 58 35.5 56.2091 35.5 54C35.5 51.7909 37.2909 50 39.5 50C41.7091 50 43.5 51.7909 43.5 54Z" fill="currentColor"></path><path fill-rule="evenodd" clip-rule="evenodd" d="M29.4418 74.4261C32.784 75.4499 36.3303 76 40 76C40.5558 76 41.1088 75.9874 41.6587 75.9624C60.3752 75.1136 75.3675 59.9731 75.9805 41.196C75.9935 40.7989 76 40.4002 76 40C76 20.1178 59.8823 4 40 4C20.1178 4 4 20.1178 4 40C4 48.2364 6.76011 55.8431 11.4225 61.9142L11.445 61.9436L11.4683 61.9724C13.4759 64.4571 14.6761 67.6137 14.6761 71.0588C14.6761 71.4774 14.6584 71.8912 14.6238 72.2995L14.4043 74.8909L16.9383 75.4758C18.4259 75.8192 19.9729 76 21.5584 76C24.3475 76 27.0123 75.4406 29.4418 74.4261ZM40 10C23.4315 10 10 23.4315 10 40C10 46.863 12.2911 53.1822 16.16 58.2322C18.7717 61.4773 20.4154 65.5407 20.6476 69.9719C20.9486 69.9905 21.2523 70 21.5584 70C23.8542 70 26.0171 69.4675 27.9381 68.5222L29.058 67.971L30.2384 68.3769C33.2947 69.428 36.5774 70 40 70C40.3852 70 40.7687 69.9928 41.1502 69.9784C56.7142 69.3917 69.2437 56.9483 69.9671 41.4196C69.9889 40.9493 70 40.476 70 40C70 23.4315 56.5685 10 40 10Z" fill="currentColor"></path></svg>