<svg width="1em" height="1em" viewBox="0 0 80 80" fill="none" xmlns="http://www.w3.org/2000/svg" class="me-1"><path fill-rule="evenodd" clip-rule="evenodd" d="M53.048 11.8069C51.8367 10.6764 49.9383 10.7418 48.8078 11.953C47.6773 13.1643 47.7428 15.0626 48.954 16.1932L58.3898 25H14.0007C12.3439 25 11.0007 26.3432 11.0007 28C11.0007 29.6569 12.3439 31 14.0007 31H66.0007C67.233 31 68.3399 30.2465 68.7917 29.1001C69.2436 27.9538 68.9485 26.6476 68.0477 25.8069L53.048 11.8069ZM26.9539 68.1932C28.1652 69.3237 30.0636 69.2582 31.1941 68.0469C32.3245 66.8356 32.259 64.9373 31.0477 63.8068L21.6114 55H66.0001C67.657 55 69.0001 53.6569 69.0001 52C69.0001 50.3432 67.657 49 66.0001 49H14.0001C12.7679 49 11.6609 49.7535 11.2091 50.8999C10.7572 52.0464 11.0524 53.3525 11.9532 54.1932L26.9539 68.1932Z" fill="currentColor"></path></svg>